<?xml version="1.0" encoding="UTF-8" standalone="no"?>
<svg
   xmlns:dc="http://purl.org/dc/elements/1.1/"
   xmlns:cc="http://creativecommons.org/ns#"
   xmlns:rdf="http://www.w3.org/1999/02/22-rdf-syntax-ns#"
   xmlns:svg="http://www.w3.org/2000/svg"
   xmlns="http://www.w3.org/2000/svg"
   xmlns:sodipodi="http://sodipodi.sourceforge.net/DTD/sodipodi-0.dtd"
   xmlns:inkscape="http://www.inkscape.org/namespaces/inkscape"
   width="512"
   height="512"
   viewBox="0 0 1600.0032 1600.0032"
   version="1.1"
   id="svg3"
   sodipodi:docname="logo512.svg"
   inkscape:version="1.0.2 (e86c870879, 2021-01-15)">
  <metadata
     id="metadata9">
    <rdf:RDF>
      <cc:Work
         rdf:about="">
        <dc:format>image/svg+xml</dc:format>
        <dc:type
           rdf:resource="http://purl.org/dc/dcmitype/StillImage" />
        <dc:title></dc:title>
      </cc:Work>
    </rdf:RDF>
  </metadata>
  <defs
     id="defs7" />
  <sodipodi:namedview
     pagecolor="#ffffff"
     bordercolor="#666666"
     borderopacity="1"
     objecttolerance="10"
     gridtolerance="10"
     guidetolerance="10"
     inkscape:pageopacity="0"
     inkscape:pageshadow="2"
     inkscape:window-width="1680"
     inkscape:window-height="1013"
     id="namedview5"
     showgrid="false"
     inkscape:zoom="0.96505843"
     inkscape:cx="253.6306"
     inkscape:cy="230.32193"
     inkscape:window-x="0"
     inkscape:window-y="0"
     inkscape:window-maximized="1"
     inkscape:current-layer="svg3"
     units="px"
     scale-x="3.12501" />
  <g
     id="g838"
     transform="matrix(3.2241878,0,0,3.2241878,0,-7.0434645)">
    <path
       id="path834"
       fill="none"
       stroke="black"
       stroke-width="1"
       d="m 191.25001,29.500026 c 0,0 -77,-9 -77,-9 0,0 9,16 9,16 0,0 -116.9999973,69.999994 -116.9999973,209.999994 0,140 107.9999973,247 244.9999973,247 137,0 245,-95.5 245,-247 0,-140 -117,-209.999994 -117,-209.999994 0,0 9,-16 9,-16 0,0 -77,9 -77,9 0,0 29,73.000004 29,73.000004 0,0 13,-16.000004 13,-16.000004 44,22.499994 86,83.499994 86,159.999994 0,76.5 -58,140 -58,140 0,0 -9,0 -9,0 0,0 0,-114 0,-114 0,0 25,0 25,0 0,0 -146,-125 -146,-125 0,0 -146,125 -146,125 0,0 24,0 24,0 0,0 0,114 0,114 0,0 -9,0 -9,0 0,0 -56.999997,-63 -56.999997,-140 0,-77 41.999997,-138 85.999997,-159.999994 0,0 14,16.000004 14,16.000004 0,0 28,-73.000004 28,-73.000004 z"
       inkscape:label="Ombre"
       style="fill:#000000;fill-opacity:0.65;stroke:none" />
    <path
       id="Sans nom"
       fill="none"
       stroke="black"
       stroke-width="1"
       d="m 185,17 c 0,0 -77,-9 -77,-9 0,0 9,16 9,16 C 117,24 0,94 0,234 0,374 108,481 245,481 382,481 490,385.5 490,234 490,94 373,24 373,24 c 0,0 9,-16 9,-16 0,0 -77,9 -77,9 0,0 29,73 29,73 0,0 13,-16 13,-16 44,22.5 86,83.5 86,160 0,76.5 -58,140 -58,140 0,0 -9,0 -9,0 0,0 0,-114 0,-114 0,0 25,0 25,0 0,0 -146,-125 -146,-125 0,0 -146,125 -146,125 0,0 24,0 24,0 0,0 0,114 0,114 0,0 -9,0 -9,0 0,0 -57,-63 -57,-140 0,-77 42,-138 86,-160 0,0 14,16 14,16 0,0 28,-73 28,-73 z"
       inkscape:label="Robine"
       style="display:inline;fill:#ec7405;fill-opacity:1;stroke:none" />
  </g>
</svg>
